<?xml version="1.0" standalone="no"?>
<!DOCTYPE svg PUBLIC "-//W3C//DTD SVG 20010904//EN"
 "http://www.w3.org/TR/2001/REC-SVG-20010904/DTD/svg10.dtd">
<svg version="1.0" xmlns="http://www.w3.org/2000/svg"
 width="1024.000000pt" height="357.000000pt" viewBox="0 0 1024.000000 357.000000"
 preserveAspectRatio="xMidYMid meet">
<metadata>
Created by potrace 1.14, written by Peter Selinger 2001-2017
</metadata>
<g transform="translate(0.000000,357.000000) scale(0.100000,-0.100000)"
fill="#000000" stroke="none">
<path d="M960 3454 c-89 -16 -219 -58 -276 -89 -78 -43 -89 -50 -144 -91 -194
-146 -330 -378 -360 -617 -13 -108 -13 -1611 0 -1732 10 -89 27 -152 60 -230
46 -109 54 -125 62 -125 4 0 8 -6 8 -13 0 -7 13 -28 30 -47 16 -19 29 -40 30
-46 0 -14 177 -184 191 -184 6 0 25 -11 42 -24 80 -60 237 -120 352 -135 85
-12 1864 -13 1955 -1 36 4 97 17 135 30 301 95 523 319 623 630 l27 85 3 1303
2 1302 -225 0 -225 0 2 -1180 3 -1181 -75 3 -75 3 -5 125 -5 125 -20 -30 c-31
-46 -75 -88 -135 -128 -30 -20 -60 -41 -65 -45 -6 -5 -46 -22 -90 -38 -75 -27
-89 -29 -230 -28 -136 0 -157 2 -227 26 -76 26 -93 35 -173 87 -41 27 -49 34
-108 89 -135 127 -216 368 -189 566 12 91 54 224 84 268 10 14 18 29 18 32 0
9 14 25 75 93 53 59 176 148 228 165 18 6 37 14 42 19 22 16 169 39 252 39 82
0 179 -17 228 -39 11 -6 40 -19 65 -30 84 -37 123 -68 211 -169 17 -19 32 -33
33 -31 2 2 0 31 -5 64 -5 33 -9 314 -8 625 l0 565 -1023 1 c-824 2 -1038 -1
-1098 -12z m466 -988 c76 -21 139 -51 198 -96 52 -40 166 -147 166 -156 0 -3
12 -21 26 -40 19 -24 25 -41 20 -59 -4 -14 -11 -25 -17 -25 -12 0 -89 -52
-113 -76 -9 -8 -16 -13 -16 -9 0 7 -114 -77 -118 -87 -2 -5 -9 -8 -15 -8 -7 0
-40 -22 -74 -48 -34 -26 -99 -72 -143 -102 -122 -83 -253 -176 -272 -194 -10
-9 -21 -16 -24 -16 -5 0 -82 -55 -111 -80 -7 -5 -17 -10 -23 -10 -5 0 -10 -6
-10 -14 0 -23 84 -90 162 -129 158 -79 313 -74 498 16 35 17 160 137 160 154
0 16 29 30 39 17 3 -5 29 -27 58 -48 51 -38 51 -40 38 -66 -25 -49 -178 -184
-246 -217 -243 -119 -546 -91 -744 70 -166 135 -252 299 -264 502 -3 55 -3
123 2 150 10 71 47 184 74 227 13 21 23 40 23 43 0 21 150 173 209 212 68 45
183 91 259 103 69 10 192 4 258 -14z"/>
<path d="M1200 2323 c-224 -44 -387 -212 -426 -438 -12 -69 -12 -92 0 -160 8
-44 19 -93 25 -109 l11 -28 43 34 c23 19 47 37 53 39 6 2 37 23 70 47 57 42
187 133 327 230 37 26 106 75 153 110 47 34 87 62 90 62 3 0 20 12 38 26 l33
27 -41 38 c-22 21 -70 53 -106 70 -36 18 -72 35 -82 40 -20 10 -155 19 -188
12z"/>
<path d="M5637 2464 c-254 -46 -458 -231 -544 -494 -23 -71 -28 -251 -9 -340
52 -244 235 -440 481 -516 94 -29 307 -26 400 4 275 92 451 303 486 584 29
232 -80 493 -266 633 -79 60 -200 112 -300 130 -104 18 -144 18 -248 -1z m226
-179 c162 -34 285 -130 359 -282 l43 -88 0 -135 c0 -135 0 -135 -36 -210 -97
-201 -260 -304 -479 -303 -80 0 -106 5 -165 28 -161 64 -272 183 -320 342 -19
61 -19 224 -1 284 49 160 158 280 307 339 104 41 184 48 292 25z"/>
<path d="M4375 2456 c-271 -59 -469 -255 -535 -527 -37 -155 -19 -300 55 -455
81 -169 239 -301 430 -360 85 -26 305 -26 390 0 62 19 173 73 214 105 l24 18
-53 67 c-53 66 -54 66 -78 50 -105 -69 -171 -88 -302 -88 -159 0 -278 51 -379
160 -308 337 -80 865 374 867 119 1 247 -37 308 -92 18 -15 21 -13 58 29 22
25 47 56 56 69 16 22 16 24 -8 42 -41 31 -131 76 -199 99 -82 28 -265 36 -355
16z"/>
<path d="M7370 2463 c-95 -15 -230 -86 -318 -168 -54 -50 -74 -75 -128 -160
l-19 -30 -6 50 c-4 28 -8 93 -8 145 -2 144 1 140 -87 140 l-74 0 0 -660 0
-660 90 0 90 0 0 368 c0 283 3 379 14 420 48 178 221 313 426 331 l65 6 17 95
c25 143 28 138 -62 123z"/>
<path d="M8210 2459 c-122 -20 -299 -137 -367 -244 -15 -25 -31 -45 -35 -45
-5 0 -8 61 -8 135 l0 135 -85 0 -85 0 0 -982 0 -983 85 3 85 3 2 451 3 451 33
-51 c60 -93 165 -170 292 -214 88 -31 312 -33 405 -4 227 70 380 221 457 452
20 59 23 89 23 214 0 133 -2 152 -29 234 -107 325 -416 502 -776 445z m263
-184 c148 -43 257 -141 320 -288 30 -69 32 -78 32 -207 0 -130 -2 -138 -33
-211 -56 -130 -164 -232 -298 -280 -81 -30 -244 -32 -324 -5 -219 74 -362 270
-362 497 0 266 188 477 457 513 46 6 155 -4 208 -19z"/>
<path d="M9563 2460 c-238 -51 -361 -307 -253 -527 51 -103 151 -173 335 -233
210 -68 295 -151 295 -289 0 -73 -22 -123 -75 -169 -73 -65 -176 -86 -285 -58
-75 19 -123 46 -202 111 -55 45 -57 46 -82 30 -13 -9 -37 -32 -52 -52 l-26
-35 48 -50 c60 -61 144 -112 238 -143 96 -32 169 -39 257 -26 203 32 337 173
347 367 6 104 -14 173 -72 251 -63 85 -158 146 -343 217 -160 62 -210 94 -237
150 -50 106 20 265 132 296 91 25 196 6 296 -55 32 -19 61 -35 65 -34 14 1 82
102 77 114 -8 22 -123 95 -184 116 -65 23 -214 33 -279 19z"/>
<path d="M2395 2296 c-139 -45 -220 -108 -295 -233 -92 -151 -104 -335 -33
-495 14 -32 30 -58 34 -58 5 0 9 -7 9 -16 0 -21 147 -167 160 -159 6 3 10 2
10 -3 0 -19 125 -64 195 -70 190 -18 313 20 437 137 43 40 78 79 78 86 0 7 6
15 13 18 7 3 26 38 42 78 28 69 30 82 30 209 0 121 -2 141 -24 190 -118 265
-396 399 -656 316z"/>
</g>
</svg>
