<!-- Generated by IcoMoon.io -->
<svg version="1.1" xmlns="http://www.w3.org/2000/svg" width="894" height="1024" viewBox="0 0 894 1024">
<title></title>
<g id="icomoon-ignore">
</g>
<path fill="#000" d="M445.217 167.564c-117.537 0-240.417 90.819-240.417 240.417 0 141.573 213.699 357.953 221.724 365.978 5.343 5.343 10.687 8.006 18.693 8.006s13.349-2.662 18.693-8.006c8.006-8.006 221.743-224.405 221.743-365.978 0-149.597-122.88-240.417-240.435-240.417zM446.836 521.309c-63.302 0-111.709-48.407-111.709-111.709s48.407-111.709 111.709-111.709 111.709 48.407 111.709 111.709-48.407 111.709-111.709 111.709z"></path>
<path fill="#ed4124" d="M445.217 167.564c-117.537 0-240.417 90.819-240.417 240.417 0 141.573 213.699 357.953 221.724 365.978 5.343 5.343 10.687 8.006 18.693 8.006s13.349-2.662 18.693-8.006c8.006-8.006 221.743-224.405 221.743-365.978 0-149.597-122.88-240.417-240.435-240.417zM446.836 521.309c-63.302 0-111.709-48.407-111.709-111.709s48.407-111.709 111.709-111.709 111.709 48.407 111.709 111.709-48.407 111.709-111.709 111.709z"></path>
<path fill="none" stroke="#fff" stroke-width="55.8545" stroke-miterlimit="4" stroke-linecap="butt" stroke-linejoin="miter" d="M445.217 139.636c144.049 0 268.344 113.329 268.344 268.344 0 69.967-42.487 154.922-113.422 249.8-26.543 35.208-51.896 65.876-78.498 95.395l1.102-1.243c-13.396 15.024-26.149 28.626-39.225 41.908l0.145-0.148c-10.668 10.687-23.087 16.198-38.447 16.198s-27.76-5.511-38.447-16.198c-12.93-13.134-25.682-26.736-38.099-40.643l-0.98-1.117c-25.502-28.278-50.855-58.946-74.875-90.678l-2.521-3.474c-70.935-94.878-113.422-179.852-113.422-249.8 0-155.015 124.295-268.344 268.344-268.344zM446.836 493.382c47.886 0 83.782-35.896 83.782-83.782s-35.896-83.782-83.782-83.782-83.782 35.896-83.782 83.782 35.896 83.782 83.782 83.782z"></path>
</svg>
